<svg width="1440" height="780" viewBox="0 0 1440 780" fill="none" xmlns="http://www.w3.org/2000/svg">
<g clip-path="url(#clip0_0_32)">
<rect width="1440" height="780" fill="white"/>
<path d="M0 0H1440V780H0V0Z" fill="white"/>
<g clip-path="url(#clip1_0_32)">
<path d="M229.489 561.182C229.489 546.757 220.369 538.767 208.651 538.767C196.889 538.767 187.834 546.757 187.834 561.182C187.834 575.543 196.889 583.597 208.651 583.597C220.369 583.597 229.489 575.607 229.489 561.182ZM218.707 561.182C218.707 569.726 214.957 574.349 208.651 574.349C202.365 574.349 198.594 569.726 198.594 561.182C198.594 552.638 202.365 548.014 208.651 548.014C214.957 548.014 218.707 552.638 218.707 561.182ZM250.923 583.618C261.214 583.618 267.457 576.821 267.457 566.743C267.457 556.643 261.214 549.847 250.923 549.847C240.632 549.847 234.389 556.643 234.389 566.743C234.389 576.821 240.632 583.618 250.923 583.618ZM250.987 575.756C247.131 575.756 245 572.091 245 566.679C245 561.246 247.131 557.56 250.987 557.56C254.716 557.56 256.847 561.246 256.847 566.679C256.847 572.091 254.716 575.756 250.987 575.756ZM272.795 595.273H283.214V577.695H283.427C284.748 580.72 287.688 583.469 292.631 583.469C299.876 583.469 305.714 577.801 305.714 566.658C305.714 555.109 299.535 549.847 292.695 549.847C287.518 549.847 284.684 552.872 283.427 555.876H283.107V550.273H272.795V595.273ZM283.001 566.636C283.001 561.288 285.217 557.986 289.031 557.986C292.887 557.986 295.018 561.374 295.018 566.636C295.018 571.92 292.887 575.351 289.031 575.351C285.217 575.351 283.001 571.942 283.001 566.636ZM339.746 560.266C339.192 553.788 333.887 549.847 325.023 549.847C316.159 549.847 310.513 553.703 310.556 560.266C310.513 565.294 313.73 568.533 320.272 569.747L325.982 570.834C328.688 571.366 329.924 572.219 329.966 573.668C329.924 575.308 328.091 576.395 325.428 576.395C322.466 576.395 320.463 575.116 320.016 572.73L309.725 572.986C310.471 579.463 316.032 583.618 325.385 583.618C334.142 583.618 340.513 579.25 340.556 572.517C340.513 567.744 337.36 564.911 330.84 563.653L324.533 562.46C321.763 561.906 320.868 560.926 320.89 559.669C320.868 558.007 322.807 556.984 325.215 556.984C327.963 556.984 329.881 558.455 330.179 560.521L339.746 560.266ZM356.317 577.034H348.136L348.093 579.42C347.965 585.216 346.154 591.224 345.494 593.653H352.056C353.079 591.182 355.614 585.301 356.126 579.399L356.317 577.034ZM373.027 547.929H386.28V583H396.678V547.929H409.909V539.364H373.027V547.929ZM425.479 564.335C425.501 560.607 427.717 558.391 431.019 558.391C434.364 558.391 436.303 560.543 436.282 564.186V583H446.701V562.141C446.722 554.726 442.205 549.847 435.323 549.847C430.423 549.847 426.971 552.254 425.501 556.281H425.138V539.364H415.06V583H425.479V564.335ZM453.205 583H463.624V550.273H453.205V583ZM458.425 546.459C461.387 546.459 463.773 544.222 463.773 541.473C463.773 538.724 461.387 536.509 458.425 536.509C455.485 536.509 453.077 538.724 453.077 541.473C453.077 544.222 455.485 546.459 458.425 546.459ZM498.828 560.266C498.274 553.788 492.969 549.847 484.105 549.847C475.241 549.847 469.595 553.703 469.638 560.266C469.595 565.294 472.812 568.533 479.354 569.747L485.064 570.834C487.77 571.366 489.006 572.219 489.048 573.668C489.006 575.308 487.173 576.395 484.51 576.395C481.548 576.395 479.545 575.116 479.098 572.73L468.807 572.986C469.553 579.463 475.114 583.618 484.467 583.618C493.224 583.618 499.595 579.25 499.638 572.517C499.595 567.744 496.442 564.911 489.922 563.653L483.615 562.46C480.845 561.906 479.95 560.926 479.972 559.669C479.95 558.007 481.889 556.984 484.297 556.984C487.045 556.984 488.963 558.455 489.261 560.521L498.828 560.266ZM517.658 583H528.205V569.449H535.364C545.357 569.449 551.6 563.526 551.6 554.47C551.6 545.5 545.485 539.364 535.684 539.364H517.658V583ZM528.205 561.139V547.865H533.404C538.134 547.865 540.669 550.422 540.669 554.47C540.669 558.497 538.134 561.139 533.404 561.139H528.205ZM564.853 583.554C569.412 583.554 572.566 581.786 574.355 578.44H574.611V583H584.412V560.756C584.412 553.831 578.255 549.847 569.924 549.847C561.124 549.847 556.138 554.278 555.307 560.244L564.917 560.585C565.364 558.497 567.09 557.219 569.838 557.219C572.395 557.219 574.015 558.455 574.015 560.649V560.756C574.015 562.759 571.841 563.185 566.259 563.675C559.632 564.229 554.093 566.679 554.093 573.923C554.093 580.401 558.588 583.554 564.853 583.554ZM568.07 576.736C565.662 576.736 563.958 575.585 563.958 573.412C563.958 571.303 565.62 570.024 568.581 569.577C570.52 569.3 572.907 568.874 574.078 568.256V571.366C574.078 574.562 571.394 576.736 568.07 576.736ZM606.039 595.955C615.904 595.955 622.637 591.459 622.637 583.128V550.273H612.26V555.876H611.962C610.705 552.872 607.85 549.847 602.694 549.847C595.854 549.847 589.654 555.109 589.654 566.594C589.654 577.716 595.556 582.553 602.736 582.553C607.551 582.553 610.769 580.315 612.005 577.29H612.367V583.043C612.367 587.219 609.81 588.732 606.316 588.732C602.971 588.732 600.968 587.453 600.414 585.429L590.549 585.983C591.316 591.714 596.706 595.955 606.039 595.955ZM606.358 574.967C602.502 574.967 600.35 571.835 600.35 566.594C600.35 561.374 602.48 557.986 606.358 557.986C610.172 557.986 612.388 561.288 612.388 566.594C612.388 571.857 610.151 574.967 606.358 574.967ZM644.577 583.618C653.164 583.618 658.81 579.463 660.004 573.028L650.437 572.751C649.627 574.925 647.496 576.097 644.769 576.097C640.763 576.097 638.292 573.433 638.292 569.428V569.151H660.11V566.551C660.11 555.77 653.548 549.847 644.258 549.847C634.371 549.847 628.022 556.622 628.022 566.764C628.022 577.247 634.286 583.618 644.577 583.618ZM638.292 563.099C638.441 559.839 641.019 557.368 644.471 557.368C647.901 557.368 650.373 559.754 650.415 563.099H638.292ZM717.931 555.173C716.866 544.733 709.089 538.767 698.542 538.767C686.909 538.767 677.853 546.757 677.853 561.182C677.853 575.543 686.696 583.597 698.542 583.597C710.517 583.597 717.143 575.457 717.931 567.723L707.278 567.659C706.532 571.857 703.379 574.349 698.755 574.349C692.534 574.349 688.613 569.854 688.613 561.182C688.613 552.851 692.449 548.014 698.819 548.014C703.613 548.014 706.745 550.805 707.278 555.173H717.931ZM739.244 583.618C749.535 583.618 755.778 576.821 755.778 566.743C755.778 556.643 749.535 549.847 739.244 549.847C728.952 549.847 722.71 556.643 722.71 566.743C722.71 576.821 728.952 583.618 739.244 583.618ZM739.308 575.756C735.451 575.756 733.32 572.091 733.32 566.679C733.32 561.246 735.451 557.56 739.308 557.56C743.036 557.56 745.167 561.246 745.167 566.679C745.167 572.091 743.036 575.756 739.308 575.756ZM782.23 568.874C782.23 572.688 779.801 574.818 776.712 574.818C773.516 574.818 771.555 572.645 771.534 569.087V550.273H761.115V571.132C761.136 578.526 765.632 583.426 772.365 583.426C777.266 583.426 780.909 580.912 782.358 576.906H782.699V583H792.628V550.273H782.23V568.874ZM809.679 539.364H799.26V583H809.679V539.364ZM828.263 583.469C833.207 583.469 836.147 580.72 837.468 577.695H837.788V583H848.1V539.364H837.681V555.876H837.468C836.232 552.872 833.377 549.847 828.221 549.847C821.381 549.847 815.181 555.109 815.181 566.658C815.181 577.801 821.04 583.469 828.263 583.469ZM831.886 575.351C828.029 575.351 825.877 571.92 825.877 566.636C825.877 561.374 828.008 557.986 831.886 557.986C835.7 557.986 837.915 561.288 837.915 566.636C837.915 571.942 835.678 575.351 831.886 575.351ZM904.718 539.364H894.192V564.506H893.83L876.657 539.364H867.58V583H878.127V557.815H878.404L895.769 583H904.718V539.364ZM926.626 583.618C936.918 583.618 943.161 576.821 943.161 566.743C943.161 556.643 936.918 549.847 926.626 549.847C916.335 549.847 910.092 556.643 910.092 566.743C910.092 576.821 916.335 583.618 926.626 583.618ZM926.69 575.756C922.834 575.756 920.703 572.091 920.703 566.679C920.703 561.246 922.834 557.56 926.69 557.56C930.419 557.56 932.55 561.246 932.55 566.679C932.55 572.091 930.419 575.756 926.69 575.756ZM966.971 550.273H961.069V542.432H950.65V550.273H946.325V557.943H950.65V573.859C950.586 580.486 954.89 583.81 962.241 583.469C964.755 583.341 966.566 582.83 967.567 582.531L965.991 575.01C965.543 575.116 964.499 575.33 963.711 575.33C962.028 575.33 961.069 574.648 961.069 572.709V557.943H966.971V550.273ZM985.178 583H1004.76C1014.41 583 1019.95 577.844 1019.95 570.791C1019.95 564.484 1015.37 560.521 1010.09 560.287V559.861C1014.88 558.859 1018.25 555.386 1018.25 550.401C1018.25 543.817 1013.17 539.364 1003.37 539.364H985.178V583ZM995.724 574.499V564.101H1002.44C1006.46 564.101 1008.93 566.232 1008.93 569.577C1008.93 572.666 1006.8 574.499 1002.24 574.499H995.724ZM995.724 557.304V547.737H1001.73C1005.25 547.737 1007.49 549.548 1007.49 552.446C1007.49 555.514 1005.01 557.304 1001.56 557.304H995.724ZM1040.32 583.618C1048.91 583.618 1054.55 579.463 1055.75 573.028L1046.18 572.751C1045.37 574.925 1043.24 576.097 1040.51 576.097C1036.51 576.097 1034.03 573.433 1034.03 569.428V569.151H1055.85V566.551C1055.85 555.77 1049.29 549.847 1040 549.847C1030.11 549.847 1023.76 556.622 1023.76 566.764C1023.76 577.247 1030.03 583.618 1040.32 583.618ZM1034.03 563.099C1034.18 559.839 1036.76 557.368 1040.21 557.368C1043.64 557.368 1046.12 559.754 1046.16 563.099H1034.03ZM1074.06 583H1084.61V565.464H1101.95V556.878H1084.61V547.929H1103.85V539.364H1074.06V583ZM1122.04 583.618C1132.33 583.618 1138.57 576.821 1138.57 566.743C1138.57 556.643 1132.33 549.847 1122.04 549.847C1111.75 549.847 1105.5 556.643 1105.5 566.743C1105.5 576.821 1111.75 583.618 1122.04 583.618ZM1122.1 575.756C1118.24 575.756 1116.11 572.091 1116.11 566.679C1116.11 561.246 1118.24 557.56 1122.1 557.56C1125.83 557.56 1127.96 561.246 1127.96 566.679C1127.96 572.091 1125.83 575.756 1122.1 575.756ZM1165.02 568.874C1165.02 572.688 1162.59 574.818 1159.5 574.818C1156.31 574.818 1154.35 572.645 1154.33 569.087V550.273H1143.91V571.132C1143.93 578.526 1148.43 583.426 1155.16 583.426C1160.06 583.426 1163.7 580.912 1165.15 576.906H1165.49V583H1175.42V550.273H1165.02V568.874ZM1192.47 564.335C1192.49 560.607 1194.67 558.391 1197.97 558.391C1201.27 558.391 1203.23 560.564 1203.21 564.186V583H1213.63V562.141C1213.65 554.768 1209.15 549.847 1202.27 549.847C1197.44 549.847 1193.77 552.297 1192.32 556.281H1191.96V550.273H1182.05V583H1192.47V564.335ZM1232.03 583.469C1236.98 583.469 1239.92 580.72 1241.24 577.695H1241.56V583H1251.87V539.364H1241.45V555.876H1241.24C1240 552.872 1237.15 549.847 1231.99 549.847C1225.15 549.847 1218.95 555.109 1218.95 566.658C1218.95 577.801 1224.81 583.469 1232.03 583.469ZM1235.66 575.351C1231.8 575.351 1229.65 571.92 1229.65 566.636C1229.65 561.374 1231.78 557.986 1235.66 557.986C1239.47 557.986 1241.69 561.288 1241.69 566.636C1241.69 571.942 1239.45 575.351 1235.66 575.351ZM1264.32 583.618C1267.24 583.618 1269.82 581.146 1269.86 578.078C1269.82 575.053 1267.24 572.602 1264.32 572.602C1261.25 572.602 1258.74 575.053 1258.78 578.078C1258.74 581.146 1261.25 583.618 1264.32 583.618Z" fill="#223051"/>
<path d="M310.5 613.648H314.034V623H316.807V613.648H320.335V611.364H310.5V613.648ZM324.487 618.023C324.493 617.028 325.084 616.438 325.964 616.438C326.857 616.438 327.374 617.011 327.368 617.983V623H330.146V617.438C330.152 615.46 328.947 614.159 327.112 614.159C325.805 614.159 324.885 614.801 324.493 615.875H324.396V611.364H321.709V623H324.487V618.023ZM335.96 623.165C338.25 623.165 339.756 622.057 340.074 620.341L337.523 620.267C337.307 620.847 336.739 621.159 336.011 621.159C334.943 621.159 334.284 620.449 334.284 619.381V619.307H340.102V618.614C340.102 615.739 338.352 614.159 335.875 614.159C333.239 614.159 331.545 615.966 331.545 618.67C331.545 621.466 333.216 623.165 335.96 623.165ZM334.284 617.693C334.324 616.824 335.011 616.165 335.932 616.165C336.847 616.165 337.506 616.801 337.517 617.693H334.284ZM344.959 626.273H347.737V621.585H347.794C348.146 622.392 348.93 623.125 350.249 623.125C352.18 623.125 353.737 621.614 353.737 618.642C353.737 615.562 352.089 614.159 350.266 614.159C348.885 614.159 348.129 614.966 347.794 615.767H347.709V614.273H344.959V626.273ZM347.68 618.636C347.68 617.21 348.271 616.33 349.288 616.33C350.317 616.33 350.885 617.233 350.885 618.636C350.885 620.045 350.317 620.96 349.288 620.96C348.271 620.96 347.68 620.051 347.68 618.636ZM357.653 623.148C358.869 623.148 359.71 622.676 360.188 621.784H360.256V623H362.869V617.068C362.869 615.222 361.227 614.159 359.006 614.159C356.659 614.159 355.33 615.341 355.108 616.932L357.67 617.023C357.79 616.466 358.25 616.125 358.983 616.125C359.665 616.125 360.097 616.455 360.097 617.04V617.068C360.097 617.602 359.517 617.716 358.028 617.847C356.261 617.994 354.784 618.648 354.784 620.58C354.784 622.307 355.983 623.148 357.653 623.148ZM358.511 621.33C357.869 621.33 357.415 621.023 357.415 620.443C357.415 619.881 357.858 619.54 358.648 619.42C359.165 619.347 359.801 619.233 360.114 619.068V619.898C360.114 620.75 359.398 621.33 358.511 621.33ZM368.636 626.455C371.267 626.455 373.062 625.256 373.062 623.034V614.273H370.295V615.767H370.216C369.881 614.966 369.119 614.159 367.744 614.159C365.92 614.159 364.267 615.562 364.267 618.625C364.267 621.591 365.841 622.881 367.756 622.881C369.04 622.881 369.898 622.284 370.227 621.477H370.324V623.011C370.324 624.125 369.642 624.528 368.71 624.528C367.818 624.528 367.284 624.188 367.136 623.648L364.506 623.795C364.71 625.324 366.148 626.455 368.636 626.455ZM368.722 620.858C367.693 620.858 367.119 620.023 367.119 618.625C367.119 617.233 367.688 616.33 368.722 616.33C369.739 616.33 370.33 617.21 370.33 618.625C370.33 620.028 369.733 620.858 368.722 620.858ZM378.913 623.165C381.203 623.165 382.709 622.057 383.027 620.341L380.476 620.267C380.26 620.847 379.692 621.159 378.964 621.159C377.896 621.159 377.237 620.449 377.237 619.381V619.307H383.055V618.614C383.055 615.739 381.305 614.159 378.828 614.159C376.192 614.159 374.499 615.966 374.499 618.67C374.499 621.466 376.169 623.165 378.913 623.165ZM377.237 617.693C377.277 616.824 377.964 616.165 378.885 616.165C379.8 616.165 380.459 616.801 380.47 617.693H377.237ZM389.611 626.273C391.611 626.273 392.605 625.261 393.088 623.835L396.378 614.278L393.452 614.273L391.821 620.5H391.73L390.122 614.273H387.213L390.315 623.318L390.207 623.58C389.94 624.233 389.338 624.244 388.52 623.977L387.906 625.994C388.327 626.165 388.946 626.273 389.611 626.273ZM401.236 623.165C403.98 623.165 405.645 621.352 405.645 618.665C405.645 615.972 403.98 614.159 401.236 614.159C398.491 614.159 396.827 615.972 396.827 618.665C396.827 621.352 398.491 623.165 401.236 623.165ZM401.253 621.068C400.224 621.068 399.656 620.091 399.656 618.648C399.656 617.199 400.224 616.216 401.253 616.216C402.247 616.216 402.815 617.199 402.815 618.648C402.815 620.091 402.247 621.068 401.253 621.068ZM412.699 619.233C412.699 620.25 412.051 620.818 411.227 620.818C410.375 620.818 409.852 620.239 409.847 619.29V614.273H407.068V619.835C407.074 621.807 408.273 623.114 410.068 623.114C411.375 623.114 412.347 622.443 412.733 621.375H412.824V623H415.472V614.273H412.699V619.233ZM423.138 623.148C424.354 623.148 425.195 622.676 425.672 621.784H425.74V623H428.354V617.068C428.354 615.222 426.712 614.159 424.49 614.159C422.143 614.159 420.814 615.341 420.592 616.932L423.155 617.023C423.274 616.466 423.734 616.125 424.467 616.125C425.149 616.125 425.581 616.455 425.581 617.04V617.068C425.581 617.602 425.001 617.716 423.513 617.847C421.746 617.994 420.268 618.648 420.268 620.58C420.268 622.307 421.467 623.148 423.138 623.148ZM423.996 621.33C423.354 621.33 422.899 621.023 422.899 620.443C422.899 619.881 423.342 619.54 424.132 619.42C424.649 619.347 425.286 619.233 425.598 619.068V619.898C425.598 620.75 424.882 621.33 423.996 621.33ZM430.053 623H432.831V618.261C432.831 617.222 433.57 616.523 434.564 616.523C434.893 616.523 435.388 616.58 435.655 616.67V614.256C435.422 614.193 435.132 614.153 434.876 614.153C433.922 614.153 433.161 614.71 432.842 615.864H432.751V614.273H430.053V623ZM440.413 623.165C442.703 623.165 444.209 622.057 444.527 620.341L441.976 620.267C441.76 620.847 441.192 621.159 440.464 621.159C439.396 621.159 438.737 620.449 438.737 619.381V619.307H444.555V618.614C444.555 615.739 442.805 614.159 440.328 614.159C437.692 614.159 435.999 615.966 435.999 618.67C435.999 621.466 437.669 623.165 440.413 623.165ZM438.737 617.693C438.777 616.824 439.464 616.165 440.385 616.165C441.3 616.165 441.959 616.801 441.97 617.693H438.737ZM452.19 611.364H449.412V623H452.19V611.364ZM458.033 623.165C460.777 623.165 462.442 621.352 462.442 618.665C462.442 615.972 460.777 614.159 458.033 614.159C455.288 614.159 453.624 615.972 453.624 618.665C453.624 621.352 455.288 623.165 458.033 623.165ZM458.05 621.068C457.021 621.068 456.453 620.091 456.453 618.648C456.453 617.199 457.021 616.216 458.05 616.216C459.044 616.216 459.612 617.199 459.612 618.648C459.612 620.091 459.044 621.068 458.05 621.068ZM467.939 623.165C470.683 623.165 472.348 621.352 472.348 618.665C472.348 615.972 470.683 614.159 467.939 614.159C465.195 614.159 463.53 615.972 463.53 618.665C463.53 621.352 465.195 623.165 467.939 623.165ZM467.956 621.068C466.928 621.068 466.359 620.091 466.359 618.648C466.359 617.199 466.928 616.216 467.956 616.216C468.95 616.216 469.518 617.199 469.518 618.648C469.518 620.091 468.95 621.068 467.956 621.068ZM473.771 623H476.55V620.381L477.112 619.699L479.192 623H482.402L479.18 618.074L482.277 614.273H479.129L476.675 617.398H476.55V611.364H473.771V623ZM483.271 623H486.05V614.273H483.271V623ZM484.663 613.256C485.453 613.256 486.089 612.659 486.089 611.926C486.089 611.193 485.453 610.602 484.663 610.602C483.879 610.602 483.237 611.193 483.237 611.926C483.237 612.659 483.879 613.256 484.663 613.256ZM490.597 618.023C490.602 617.028 491.182 616.438 492.062 616.438C492.943 616.438 493.466 617.017 493.46 617.983V623H496.239V617.438C496.244 615.472 495.045 614.159 493.21 614.159C491.92 614.159 490.943 614.812 490.557 615.875H490.46V614.273H487.818V623H490.597V618.023ZM502.027 626.455C504.658 626.455 506.453 625.256 506.453 623.034V614.273H503.686V615.767H503.607C503.271 614.966 502.51 614.159 501.135 614.159C499.311 614.159 497.658 615.562 497.658 618.625C497.658 621.591 499.232 622.881 501.146 622.881C502.43 622.881 503.288 622.284 503.618 621.477H503.714V623.011C503.714 624.125 503.033 624.528 502.101 624.528C501.209 624.528 500.675 624.188 500.527 623.648L497.896 623.795C498.101 625.324 499.538 626.455 502.027 626.455ZM502.112 620.858C501.084 620.858 500.51 620.023 500.51 618.625C500.51 617.233 501.078 616.33 502.112 616.33C503.129 616.33 503.72 617.21 503.72 618.625C503.72 620.028 503.124 620.858 502.112 620.858ZM516.622 614.273H514.957V613.784C514.957 613.284 515.162 612.977 515.81 612.977C516.071 612.977 516.389 613.034 516.594 613.097L517.037 611.062C516.707 610.972 515.952 610.818 515.185 610.818C513.406 610.818 512.185 611.807 512.185 613.83V614.273H511.009V616.318H512.185V623H514.957V616.318H516.622V614.273ZM521.736 623.165C524.48 623.165 526.145 621.352 526.145 618.665C526.145 615.972 524.48 614.159 521.736 614.159C518.991 614.159 517.327 615.972 517.327 618.665C517.327 621.352 518.991 623.165 521.736 623.165ZM521.753 621.068C520.724 621.068 520.156 620.091 520.156 618.648C520.156 617.199 520.724 616.216 521.753 616.216C522.747 616.216 523.315 617.199 523.315 618.648C523.315 620.091 522.747 621.068 521.753 621.068ZM527.568 623H530.347V618.261C530.347 617.222 531.085 616.523 532.08 616.523C532.409 616.523 532.903 616.58 533.17 616.67V614.256C532.938 614.193 532.648 614.153 532.392 614.153C531.438 614.153 530.676 614.71 530.358 615.864H530.267V614.273H527.568V623ZM537.74 623H540.518V617.835C540.518 616.972 541.024 616.42 541.751 616.42C542.473 616.42 542.95 616.926 542.95 617.733V623H545.621V617.79C545.621 616.955 546.081 616.42 546.848 616.42C547.553 616.42 548.053 616.892 548.053 617.761V623H550.831V617.125C550.831 615.278 549.695 614.159 548.047 614.159C546.757 614.159 545.74 614.835 545.416 615.875H545.325C545.092 614.83 544.155 614.159 542.945 614.159C541.751 614.159 540.842 614.812 540.479 615.875H540.382V614.273H537.74V623ZM552.553 623H555.331V614.273H552.553V623ZM553.945 613.256C554.734 613.256 555.371 612.659 555.371 611.926C555.371 611.193 554.734 610.602 553.945 610.602C553.161 610.602 552.518 611.193 552.518 611.926C552.518 612.659 553.161 613.256 553.945 613.256ZM561.168 626.455C563.798 626.455 565.594 625.256 565.594 623.034V614.273H562.827V615.767H562.747C562.412 614.966 561.651 614.159 560.276 614.159C558.452 614.159 556.798 615.562 556.798 618.625C556.798 621.591 558.372 622.881 560.287 622.881C561.571 622.881 562.429 622.284 562.759 621.477H562.855V623.011C562.855 624.125 562.173 624.528 561.241 624.528C560.349 624.528 559.815 624.188 559.668 623.648L557.037 623.795C557.241 625.324 558.679 626.455 561.168 626.455ZM561.253 620.858C560.224 620.858 559.651 620.023 559.651 618.625C559.651 617.233 560.219 616.33 561.253 616.33C562.27 616.33 562.861 617.21 562.861 618.625C562.861 620.028 562.264 620.858 561.253 620.858ZM570.143 618.023C570.149 617.028 570.74 616.438 571.621 616.438C572.513 616.438 573.03 617.011 573.024 617.983V623H575.803V617.438C575.808 615.46 574.604 614.159 572.768 614.159C571.462 614.159 570.541 614.801 570.149 615.875H570.053V611.364H567.365V623H570.143V618.023ZM582.463 614.273H580.889V612.182H578.111V614.273H576.957V616.318H578.111V620.562C578.094 622.33 579.241 623.216 581.202 623.125C581.872 623.091 582.355 622.955 582.622 622.875L582.202 620.869C582.082 620.898 581.804 620.955 581.594 620.955C581.145 620.955 580.889 620.773 580.889 620.256V616.318H582.463V614.273ZM590.097 618.023C590.102 617.028 590.693 616.438 591.574 616.438C592.466 616.438 592.983 617.011 592.977 617.983V623H595.756V617.438C595.761 615.46 594.557 614.159 592.722 614.159C591.415 614.159 590.494 614.801 590.102 615.875H590.006V611.364H587.318V623H590.097V618.023ZM599.95 623.148C601.166 623.148 602.007 622.676 602.484 621.784H602.553V623H605.166V617.068C605.166 615.222 603.524 614.159 601.303 614.159C598.956 614.159 597.626 615.341 597.405 616.932L599.967 617.023C600.087 616.466 600.547 616.125 601.28 616.125C601.962 616.125 602.393 616.455 602.393 617.04V617.068C602.393 617.602 601.814 617.716 600.325 617.847C598.558 617.994 597.081 618.648 597.081 620.58C597.081 622.307 598.28 623.148 599.95 623.148ZM600.808 621.33C600.166 621.33 599.712 621.023 599.712 620.443C599.712 619.881 600.155 619.54 600.945 619.42C601.462 619.347 602.098 619.233 602.411 619.068V619.898C602.411 620.75 601.695 621.33 600.808 621.33ZM615.018 614.273H612.092L610.479 620.284H610.388L608.78 614.273H605.854L608.842 623H612.024L615.018 614.273ZM619.882 623.165C622.172 623.165 623.678 622.057 623.996 620.341L621.445 620.267C621.229 620.847 620.661 621.159 619.933 621.159C618.865 621.159 618.206 620.449 618.206 619.381V619.307H624.024V618.614C624.024 615.739 622.274 614.159 619.797 614.159C617.161 614.159 615.467 615.966 615.467 618.67C615.467 621.466 617.138 623.165 619.882 623.165ZM618.206 617.693C618.246 616.824 618.933 616.165 619.854 616.165C620.768 616.165 621.428 616.801 621.439 617.693H618.206ZM628.881 623H631.631V621.585H631.716C632.068 622.392 632.852 623.125 634.17 623.125C636.102 623.125 637.659 621.614 637.659 618.642C637.659 615.562 636.011 614.159 634.188 614.159C632.807 614.159 632.051 614.966 631.716 615.767H631.659V611.364H628.881V623ZM631.602 618.636C631.602 617.21 632.193 616.33 633.21 616.33C634.239 616.33 634.807 617.233 634.807 618.636C634.807 620.045 634.239 620.96 633.21 620.96C632.193 620.96 631.602 620.051 631.602 618.636ZM643.195 623.165C645.484 623.165 646.99 622.057 647.308 620.341L644.757 620.267C644.541 620.847 643.973 621.159 643.246 621.159C642.178 621.159 641.518 620.449 641.518 619.381V619.307H647.337V618.614C647.337 615.739 645.587 614.159 643.109 614.159C640.473 614.159 638.78 615.966 638.78 618.67C638.78 621.466 640.45 623.165 643.195 623.165ZM641.518 617.693C641.558 616.824 642.246 616.165 643.166 616.165C644.081 616.165 644.74 616.801 644.751 617.693H641.518ZM652.835 623.165C655.125 623.165 656.631 622.057 656.949 620.341L654.398 620.267C654.182 620.847 653.614 621.159 652.886 621.159C651.818 621.159 651.159 620.449 651.159 619.381V619.307H656.977V618.614C656.977 615.739 655.227 614.159 652.75 614.159C650.114 614.159 648.42 615.966 648.42 618.67C648.42 621.466 650.091 623.165 652.835 623.165ZM651.159 617.693C651.199 616.824 651.886 616.165 652.807 616.165C653.722 616.165 654.381 616.801 654.392 617.693H651.159ZM661.175 618.023C661.18 617.028 661.76 616.438 662.641 616.438C663.521 616.438 664.044 617.017 664.038 617.983V623H666.817V617.438C666.822 615.472 665.624 614.159 663.788 614.159C662.499 614.159 661.521 614.812 661.135 615.875H661.038V614.273H658.396V623H661.175V618.023ZM671.974 623H674.753V618.261C674.753 617.222 675.491 616.523 676.486 616.523C676.815 616.523 677.31 616.58 677.577 616.67V614.256C677.344 614.193 677.054 614.153 676.798 614.153C675.844 614.153 675.082 614.71 674.764 615.864H674.673V614.273H671.974V623ZM682.335 623.165C684.625 623.165 686.131 622.057 686.449 620.341L683.898 620.267C683.682 620.847 683.114 621.159 682.386 621.159C681.318 621.159 680.659 620.449 680.659 619.381V619.307H686.477V618.614C686.477 615.739 684.727 614.159 682.25 614.159C679.614 614.159 677.92 615.966 677.92 618.67C677.92 621.466 679.591 623.165 682.335 623.165ZM680.659 617.693C680.699 616.824 681.386 616.165 682.307 616.165C683.222 616.165 683.881 616.801 683.892 617.693H680.659ZM687.896 623H690.675V617.835C690.675 616.972 691.18 616.42 691.908 616.42C692.629 616.42 693.107 616.926 693.107 617.733V623H695.777V617.79C695.777 616.955 696.237 616.42 697.004 616.42C697.709 616.42 698.209 616.892 698.209 617.761V623H700.987V617.125C700.987 615.278 699.851 614.159 698.203 614.159C696.913 614.159 695.896 614.835 695.572 615.875H695.482C695.249 614.83 694.311 614.159 693.101 614.159C691.908 614.159 690.999 614.812 690.635 615.875H690.538V614.273H687.896V623ZM706.783 623.165C709.527 623.165 711.192 621.352 711.192 618.665C711.192 615.972 709.527 614.159 706.783 614.159C704.038 614.159 702.374 615.972 702.374 618.665C702.374 621.352 704.038 623.165 706.783 623.165ZM706.8 621.068C705.771 621.068 705.203 620.091 705.203 618.648C705.203 617.199 705.771 616.216 706.8 616.216C707.794 616.216 708.362 617.199 708.362 618.648C708.362 620.091 707.794 621.068 706.8 621.068ZM720.8 614.273H717.874L716.26 620.284H716.169L714.561 614.273H711.635L714.624 623H717.805L720.8 614.273ZM725.663 623.165C727.953 623.165 729.459 622.057 729.777 620.341L727.226 620.267C727.01 620.847 726.442 621.159 725.714 621.159C724.646 621.159 723.987 620.449 723.987 619.381V619.307H729.805V618.614C729.805 615.739 728.055 614.159 725.578 614.159C722.942 614.159 721.249 615.966 721.249 618.67C721.249 621.466 722.919 623.165 725.663 623.165ZM723.987 617.693C724.027 616.824 724.714 616.165 725.635 616.165C726.55 616.165 727.209 616.801 727.22 617.693H723.987ZM734.412 623.125C735.73 623.125 736.514 622.392 736.866 621.585H736.952V623H739.702V611.364H736.923V615.767H736.866C736.537 614.966 735.776 614.159 734.401 614.159C732.577 614.159 730.923 615.562 730.923 618.642C730.923 621.614 732.486 623.125 734.412 623.125ZM735.378 620.96C734.349 620.96 733.776 620.045 733.776 618.636C733.776 617.233 734.344 616.33 735.378 616.33C736.395 616.33 736.986 617.21 736.986 618.636C736.986 620.051 736.389 620.96 735.378 620.96ZM744.294 621.409H742.112L742.101 622.045C742.067 623.591 741.584 625.193 741.408 625.841H743.158C743.43 625.182 744.107 623.614 744.243 622.04L744.294 621.409ZM751.909 618.023C751.915 617.028 752.506 616.438 753.386 616.438C754.278 616.438 754.795 617.011 754.79 617.983V623H757.568V617.438C757.574 615.46 756.369 614.159 754.534 614.159C753.227 614.159 752.307 614.801 751.915 615.875H751.818V611.364H749.131V623H751.909V618.023ZM761.763 623.148C762.979 623.148 763.82 622.676 764.297 621.784H764.365V623H766.979V617.068C766.979 615.222 765.337 614.159 763.115 614.159C760.768 614.159 759.439 615.341 759.217 616.932L761.78 617.023C761.899 616.466 762.359 616.125 763.092 616.125C763.774 616.125 764.206 616.455 764.206 617.04V617.068C764.206 617.602 763.626 617.716 762.138 617.847C760.371 617.994 758.893 618.648 758.893 620.58C758.893 622.307 760.092 623.148 761.763 623.148ZM762.621 621.33C761.979 621.33 761.524 621.023 761.524 620.443C761.524 619.881 761.967 619.54 762.757 619.42C763.274 619.347 763.911 619.233 764.223 619.068V619.898C764.223 620.75 763.507 621.33 762.621 621.33ZM771.865 623.125C773.183 623.125 773.967 622.392 774.32 621.585H774.405V623H777.155V611.364H774.376V615.767H774.32C773.99 614.966 773.229 614.159 771.854 614.159C770.03 614.159 768.376 615.562 768.376 618.642C768.376 621.614 769.939 623.125 771.865 623.125ZM772.831 620.96C771.803 620.96 771.229 620.045 771.229 618.636C771.229 617.233 771.797 616.33 772.831 616.33C773.848 616.33 774.439 617.21 774.439 618.636C774.439 620.051 773.842 620.96 772.831 620.96ZM782.349 623H785.128V614.273H782.349V623ZM783.741 613.256C784.531 613.256 785.168 612.659 785.168 611.926C785.168 611.193 784.531 610.602 783.741 610.602C782.957 610.602 782.315 611.193 782.315 611.926C782.315 612.659 782.957 613.256 783.741 613.256ZM791.822 614.273H790.249V612.182H787.47V614.273H786.317V616.318H787.47V620.562C787.453 622.33 788.601 623.216 790.561 623.125C791.232 623.091 791.714 622.955 791.982 622.875L791.561 620.869C791.442 620.898 791.163 620.955 790.953 620.955C790.504 620.955 790.249 620.773 790.249 620.256V616.318H791.822V614.273ZM800.75 616.938C800.602 615.21 799.188 614.159 796.824 614.159C794.46 614.159 792.955 615.188 792.966 616.938C792.955 618.278 793.812 619.142 795.557 619.466L797.08 619.756C797.801 619.898 798.131 620.125 798.142 620.511C798.131 620.949 797.642 621.239 796.932 621.239C796.142 621.239 795.608 620.898 795.489 620.261L792.744 620.33C792.943 622.057 794.426 623.165 796.92 623.165C799.256 623.165 800.955 622 800.966 620.205C800.955 618.932 800.114 618.176 798.375 617.841L796.693 617.523C795.955 617.375 795.716 617.114 795.722 616.778C795.716 616.335 796.233 616.062 796.875 616.062C797.608 616.062 798.119 616.455 798.199 617.006L800.75 616.938ZM808.55 618.023C808.555 617.028 809.135 616.438 810.016 616.438C810.896 616.438 811.419 617.017 811.413 617.983V623H814.192V617.438C814.197 615.472 812.999 614.159 811.163 614.159C809.874 614.159 808.896 614.812 808.51 615.875H808.413V614.273H805.771V623H808.55V618.023ZM818.372 623.148C819.588 623.148 820.429 622.676 820.906 621.784H820.974V623H823.588V617.068C823.588 615.222 821.946 614.159 819.724 614.159C817.378 614.159 816.048 615.341 815.827 616.932L818.389 617.023C818.509 616.466 818.969 616.125 819.702 616.125C820.384 616.125 820.815 616.455 820.815 617.04V617.068C820.815 617.602 820.236 617.716 818.747 617.847C816.98 617.994 815.503 618.648 815.503 620.58C815.503 622.307 816.702 623.148 818.372 623.148ZM819.23 621.33C818.588 621.33 818.134 621.023 818.134 620.443C818.134 619.881 818.577 619.54 819.366 619.42C819.884 619.347 820.52 619.233 820.832 619.068V619.898C820.832 620.75 820.116 621.33 819.23 621.33ZM825.287 623H828.065V617.835C828.065 616.972 828.571 616.42 829.298 616.42C830.02 616.42 830.497 616.926 830.497 617.733V623H833.168V617.79C833.168 616.955 833.628 616.42 834.395 616.42C835.099 616.42 835.599 616.892 835.599 617.761V623H838.378V617.125C838.378 615.278 837.241 614.159 835.594 614.159C834.304 614.159 833.287 614.835 832.963 615.875H832.872C832.639 614.83 831.702 614.159 830.491 614.159C829.298 614.159 828.389 614.812 828.026 615.875H827.929V614.273H825.287V623ZM844.179 623.165C846.469 623.165 847.974 622.057 848.293 620.341L845.741 620.267C845.526 620.847 844.957 621.159 844.23 621.159C843.162 621.159 842.503 620.449 842.503 619.381V619.307H848.321V618.614C848.321 615.739 846.571 614.159 844.094 614.159C841.457 614.159 839.764 615.966 839.764 618.67C839.764 621.466 841.435 623.165 844.179 623.165ZM842.503 617.693C842.543 616.824 843.23 616.165 844.151 616.165C845.065 616.165 845.724 616.801 845.736 617.693H842.503ZM857.251 623.165C859.706 623.165 861.229 621.739 861.303 619.58H858.706C858.604 620.506 858.047 621.011 857.286 621.011C856.308 621.011 855.672 620.188 855.672 618.636C855.672 617.097 856.314 616.273 857.286 616.273C858.081 616.273 858.598 616.812 858.706 617.705H861.303C861.24 615.557 859.672 614.159 857.246 614.159C854.501 614.159 852.842 615.989 852.842 618.665C852.842 621.33 854.49 623.165 857.251 623.165ZM865.503 618.023C865.509 617.028 866.099 616.438 866.98 616.438C867.872 616.438 868.389 617.011 868.384 617.983V623H871.162V617.438C871.168 615.46 869.963 614.159 868.128 614.159C866.821 614.159 865.901 614.801 865.509 615.875H865.412V611.364H862.724V623H865.503V618.023ZM875.357 623.148C876.572 623.148 877.413 622.676 877.891 621.784H877.959V623H880.572V617.068C880.572 615.222 878.93 614.159 876.709 614.159C874.362 614.159 873.033 615.341 872.811 616.932L875.374 617.023C875.493 616.466 875.953 616.125 876.686 616.125C877.368 616.125 877.8 616.455 877.8 617.04V617.068C877.8 617.602 877.22 617.716 875.732 617.847C873.964 617.994 872.487 618.648 872.487 620.58C872.487 622.307 873.686 623.148 875.357 623.148ZM876.214 621.33C875.572 621.33 875.118 621.023 875.118 620.443C875.118 619.881 875.561 619.54 876.351 619.42C876.868 619.347 877.504 619.233 877.817 619.068V619.898C877.817 620.75 877.101 621.33 876.214 621.33ZM885.05 618.023C885.055 617.028 885.635 616.438 886.516 616.438C887.396 616.438 887.919 617.017 887.913 617.983V623H890.692V617.438C890.697 615.472 889.499 614.159 887.663 614.159C886.374 614.159 885.396 614.812 885.01 615.875H884.913V614.273H882.271V623H885.05V618.023ZM896.48 626.455C899.111 626.455 900.906 625.256 900.906 623.034V614.273H898.139V615.767H898.06C897.724 614.966 896.963 614.159 895.588 614.159C893.764 614.159 892.111 615.562 892.111 618.625C892.111 621.591 893.685 622.881 895.599 622.881C896.884 622.881 897.741 622.284 898.071 621.477H898.168V623.011C898.168 624.125 897.486 624.528 896.554 624.528C895.662 624.528 895.128 624.188 894.98 623.648L892.349 623.795C892.554 625.324 893.991 626.455 896.48 626.455ZM896.565 620.858C895.537 620.858 894.963 620.023 894.963 618.625C894.963 617.233 895.531 616.33 896.565 616.33C897.582 616.33 898.173 617.21 898.173 618.625C898.173 620.028 897.577 620.858 896.565 620.858ZM906.757 623.165C909.047 623.165 910.553 622.057 910.871 620.341L908.32 620.267C908.104 620.847 907.536 621.159 906.808 621.159C905.74 621.159 905.081 620.449 905.081 619.381V619.307H910.899V618.614C910.899 615.739 909.149 614.159 906.672 614.159C904.036 614.159 902.342 615.966 902.342 618.67C902.342 621.466 904.013 623.165 906.757 623.165ZM905.081 617.693C905.121 616.824 905.808 616.165 906.729 616.165C907.643 616.165 908.303 616.801 908.314 617.693H905.081ZM915.506 623.125C916.824 623.125 917.608 622.392 917.96 621.585H918.045V623H920.795V611.364H918.017V615.767H917.96C917.631 614.966 916.869 614.159 915.494 614.159C913.67 614.159 912.017 615.562 912.017 618.642C912.017 621.614 913.58 623.125 915.506 623.125ZM916.472 620.96C915.443 620.96 914.869 620.045 914.869 618.636C914.869 617.233 915.438 616.33 916.472 616.33C917.489 616.33 918.08 617.21 918.08 618.636C918.08 620.051 917.483 620.96 916.472 620.96ZM925.388 621.409H923.206L923.195 622.045C923.161 623.591 922.678 625.193 922.501 625.841H924.251C924.524 625.182 925.2 623.614 925.337 622.04L925.388 621.409ZM934.298 623.165C937.043 623.165 938.707 621.352 938.707 618.665C938.707 615.972 937.043 614.159 934.298 614.159C931.554 614.159 929.889 615.972 929.889 618.665C929.889 621.352 931.554 623.165 934.298 623.165ZM934.315 621.068C933.287 621.068 932.719 620.091 932.719 618.648C932.719 617.199 933.287 616.216 934.315 616.216C935.31 616.216 935.878 617.199 935.878 618.648C935.878 620.091 935.31 621.068 934.315 621.068ZM940.131 623H942.909V618.261C942.909 617.222 943.648 616.523 944.642 616.523C944.972 616.523 945.466 616.58 945.733 616.67V614.256C945.5 614.193 945.21 614.153 944.955 614.153C944 614.153 943.239 614.71 942.92 615.864H942.83V614.273H940.131V623ZM950.303 623H953.081V614.273H950.303V623ZM951.695 613.256C952.484 613.256 953.121 612.659 953.121 611.926C953.121 611.193 952.484 610.602 951.695 610.602C950.911 610.602 950.268 611.193 950.268 611.926C950.268 612.659 950.911 613.256 951.695 613.256ZM962.469 616.938C962.321 615.21 960.906 614.159 958.543 614.159C956.179 614.159 954.673 615.188 954.685 616.938C954.673 618.278 955.531 619.142 957.276 619.466L958.798 619.756C959.52 619.898 959.849 620.125 959.861 620.511C959.849 620.949 959.361 621.239 958.651 621.239C957.861 621.239 957.327 620.898 957.207 620.261L954.463 620.33C954.662 622.057 956.145 623.165 958.639 623.165C960.974 623.165 962.673 622 962.685 620.205C962.673 618.932 961.832 618.176 960.094 617.841L958.412 617.523C957.673 617.375 957.435 617.114 957.44 616.778C957.435 616.335 957.952 616.062 958.594 616.062C959.327 616.062 959.838 616.455 959.918 617.006L962.469 616.938ZM972.416 614.273H970.842V612.182H968.064V614.273H966.911V616.318H968.064V620.562C968.047 622.33 969.195 623.216 971.155 623.125C971.825 623.091 972.308 622.955 972.575 622.875L972.155 620.869C972.036 620.898 971.757 620.955 971.547 620.955C971.098 620.955 970.842 620.773 970.842 620.256V616.318H972.416V614.273ZM977.82 623.165C980.109 623.165 981.615 622.057 981.933 620.341L979.382 620.267C979.166 620.847 978.598 621.159 977.871 621.159C976.803 621.159 976.143 620.449 976.143 619.381V619.307H981.962V618.614C981.962 615.739 980.212 614.159 977.734 614.159C975.098 614.159 973.405 615.966 973.405 618.67C973.405 621.466 975.075 623.165 977.82 623.165ZM976.143 617.693C976.183 616.824 976.871 616.165 977.791 616.165C978.706 616.165 979.365 616.801 979.376 617.693H976.143ZM983.381 623H986.159V617.835C986.159 616.972 986.665 616.42 987.392 616.42C988.114 616.42 988.591 616.926 988.591 617.733V623H991.261V617.79C991.261 616.955 991.722 616.42 992.489 616.42C993.193 616.42 993.693 616.892 993.693 617.761V623H996.472V617.125C996.472 615.278 995.335 614.159 993.688 614.159C992.398 614.159 991.381 614.835 991.057 615.875H990.966C990.733 614.83 989.795 614.159 988.585 614.159C987.392 614.159 986.483 614.812 986.119 615.875H986.023V614.273H983.381V623ZM998.193 626.273H1000.97V621.585H1001.03C1001.38 622.392 1002.16 623.125 1003.48 623.125C1005.41 623.125 1006.97 621.614 1006.97 618.642C1006.97 615.562 1005.32 614.159 1003.5 614.159C1002.12 614.159 1001.36 614.966 1001.03 615.767H1000.94V614.273H998.193V626.273ZM1000.91 618.636C1000.91 617.21 1001.51 616.33 1002.52 616.33C1003.55 616.33 1004.12 617.233 1004.12 618.636C1004.12 620.045 1003.55 620.96 1002.52 620.96C1001.51 620.96 1000.91 620.051 1000.91 618.636ZM1012.5 623.165C1015.25 623.165 1016.91 621.352 1016.91 618.665C1016.91 615.972 1015.25 614.159 1012.5 614.159C1009.76 614.159 1008.09 615.972 1008.09 618.665C1008.09 621.352 1009.76 623.165 1012.5 623.165ZM1012.52 621.068C1011.49 621.068 1010.92 620.091 1010.92 618.648C1010.92 617.199 1011.49 616.216 1012.52 616.216C1013.51 616.216 1014.08 617.199 1014.08 618.648C1014.08 620.091 1013.51 621.068 1012.52 621.068ZM1018.33 623H1021.11V618.261C1021.11 617.222 1021.85 616.523 1022.85 616.523C1023.17 616.523 1023.67 616.58 1023.94 616.67V614.256C1023.7 614.193 1023.41 614.153 1023.16 614.153C1022.2 614.153 1021.44 614.71 1021.12 615.864H1021.03V614.273H1018.33V623ZM1027.2 623.148C1028.42 623.148 1029.26 622.676 1029.73 621.784H1029.8V623H1032.42V617.068C1032.42 615.222 1030.77 614.159 1028.55 614.159C1026.21 614.159 1024.88 615.341 1024.65 616.932L1027.22 617.023C1027.34 616.466 1027.8 616.125 1028.53 616.125C1029.21 616.125 1029.64 616.455 1029.64 617.04V617.068C1029.64 617.602 1029.06 617.716 1027.58 617.847C1025.81 617.994 1024.33 618.648 1024.33 620.58C1024.33 622.307 1025.53 623.148 1027.2 623.148ZM1028.06 621.33C1027.42 621.33 1026.96 621.023 1026.96 620.443C1026.96 619.881 1027.4 619.54 1028.19 619.42C1028.71 619.347 1029.35 619.233 1029.66 619.068V619.898C1029.66 620.75 1028.94 621.33 1028.06 621.33ZM1034.12 623H1036.89V618.261C1036.89 617.222 1037.63 616.523 1038.63 616.523C1038.96 616.523 1039.45 616.58 1039.72 616.67V614.256C1039.48 614.193 1039.19 614.153 1038.94 614.153C1037.98 614.153 1037.22 614.71 1036.9 615.864H1036.81V614.273H1034.12V623ZM1040.85 623H1043.63V614.273H1040.85V623ZM1042.24 613.256C1043.03 613.256 1043.67 612.659 1043.67 611.926C1043.67 611.193 1043.03 610.602 1042.24 610.602C1041.46 610.602 1040.82 611.193 1040.82 611.926C1040.82 612.659 1041.46 613.256 1042.24 613.256ZM1048.17 611.364H1045.4V623H1048.17V611.364ZM1051.64 626.273C1053.64 626.273 1054.64 625.261 1055.12 623.835L1058.41 614.278L1055.48 614.273L1053.85 620.5H1053.76L1052.15 614.273H1049.24L1052.35 623.318L1052.24 623.58C1051.97 624.233 1051.37 624.244 1050.55 623.977L1049.94 625.994C1050.36 626.165 1050.98 626.273 1051.64 626.273ZM1068.54 619.233C1068.54 620.25 1067.89 620.818 1067.07 620.818C1066.22 620.818 1065.7 620.239 1065.69 619.29V614.273H1062.91V619.835C1062.92 621.807 1064.12 623.114 1065.91 623.114C1067.22 623.114 1068.19 622.443 1068.58 621.375H1068.67V623H1071.32V614.273H1068.54V619.233ZM1075.86 618.023C1075.87 617.028 1076.45 616.438 1077.33 616.438C1078.21 616.438 1078.73 617.017 1078.73 617.983V623H1081.5V617.438C1081.51 615.472 1080.31 614.159 1078.48 614.159C1077.19 614.159 1076.21 614.812 1075.82 615.875H1075.73V614.273H1073.08V623H1075.86V618.023ZM1085.68 623.148C1086.9 623.148 1087.74 622.676 1088.22 621.784H1088.29V623H1090.9V617.068C1090.9 615.222 1089.26 614.159 1087.04 614.159C1084.69 614.159 1083.36 615.341 1083.14 616.932L1085.7 617.023C1085.82 616.466 1086.28 616.125 1087.01 616.125C1087.7 616.125 1088.13 616.455 1088.13 617.04V617.068C1088.13 617.602 1087.55 617.716 1086.06 617.847C1084.29 617.994 1082.82 618.648 1082.82 620.58C1082.82 622.307 1084.01 623.148 1085.68 623.148ZM1086.54 621.33C1085.9 621.33 1085.45 621.023 1085.45 620.443C1085.45 619.881 1085.89 619.54 1086.68 619.42C1087.2 619.347 1087.83 619.233 1088.14 619.068V619.898C1088.14 620.75 1087.43 621.33 1086.54 621.33ZM1100.75 614.273H1097.83L1096.21 620.284H1096.12L1094.51 614.273H1091.59L1094.58 623H1097.76L1100.75 614.273ZM1104.04 623.148C1105.26 623.148 1106.1 622.676 1106.58 621.784H1106.65V623H1109.26V617.068C1109.26 615.222 1107.62 614.159 1105.4 614.159C1103.05 614.159 1101.72 615.341 1101.5 616.932L1104.06 617.023C1104.18 616.466 1104.64 616.125 1105.37 616.125C1106.06 616.125 1106.49 616.455 1106.49 617.04V617.068C1106.49 617.602 1105.91 617.716 1104.42 617.847C1102.65 617.994 1101.17 618.648 1101.17 620.58C1101.17 622.307 1102.37 623.148 1104.04 623.148ZM1104.9 621.33C1104.26 621.33 1103.81 621.023 1103.81 620.443C1103.81 619.881 1104.25 619.54 1105.04 619.42C1105.56 619.347 1106.19 619.233 1106.5 619.068V619.898C1106.5 620.75 1105.79 621.33 1104.9 621.33ZM1110.96 623H1113.74V614.273H1110.96V623ZM1112.35 613.256C1113.14 613.256 1113.78 612.659 1113.78 611.926C1113.78 611.193 1113.14 610.602 1112.35 610.602C1111.57 610.602 1110.92 611.193 1110.92 611.926C1110.92 612.659 1111.57 613.256 1112.35 613.256ZM1118.28 611.364H1115.51V623H1118.28V611.364ZM1122.51 623.148C1123.73 623.148 1124.57 622.676 1125.05 621.784H1125.12V623H1127.73V617.068C1127.73 615.222 1126.09 614.159 1123.87 614.159C1121.52 614.159 1120.19 615.341 1119.97 616.932L1122.53 617.023C1122.65 616.466 1123.11 616.125 1123.84 616.125C1124.52 616.125 1124.96 616.455 1124.96 617.04V617.068C1124.96 617.602 1124.38 617.716 1122.89 617.847C1121.12 617.994 1119.64 618.648 1119.64 620.58C1119.64 622.307 1120.84 623.148 1122.51 623.148ZM1123.37 621.33C1122.73 621.33 1122.27 621.023 1122.27 620.443C1122.27 619.881 1122.72 619.54 1123.51 619.42C1124.02 619.347 1124.66 619.233 1124.97 619.068V619.898C1124.97 620.75 1124.26 621.33 1123.37 621.33ZM1129.43 623H1132.18V621.585H1132.26C1132.62 622.392 1133.4 623.125 1134.72 623.125C1136.65 623.125 1138.21 621.614 1138.21 618.642C1138.21 615.562 1136.56 614.159 1134.73 614.159C1133.35 614.159 1132.6 614.966 1132.26 615.767H1132.21V611.364H1129.43V623ZM1132.15 618.636C1132.15 617.21 1132.74 616.33 1133.76 616.33C1134.79 616.33 1135.35 617.233 1135.35 618.636C1135.35 620.045 1134.79 620.96 1133.76 620.96C1132.74 620.96 1132.15 620.051 1132.15 618.636ZM1142.44 611.364H1139.66V623H1142.44V611.364ZM1148.29 623.165C1150.58 623.165 1152.08 622.057 1152.4 620.341L1149.85 620.267C1149.63 620.847 1149.07 621.159 1148.34 621.159C1147.27 621.159 1146.61 620.449 1146.61 619.381V619.307H1152.43V618.614C1152.43 615.739 1150.68 614.159 1148.2 614.159C1145.57 614.159 1143.87 615.966 1143.87 618.67C1143.87 621.466 1145.54 623.165 1148.29 623.165ZM1146.61 617.693C1146.65 616.824 1147.34 616.165 1148.26 616.165C1149.17 616.165 1149.83 616.801 1149.85 617.693H1146.61ZM1155.41 623.165C1156.19 623.165 1156.88 622.506 1156.89 621.688C1156.88 620.881 1156.19 620.227 1155.41 620.227C1154.59 620.227 1153.92 620.881 1153.93 621.688C1153.92 622.506 1154.59 623.165 1155.41 623.165Z" fill="#7C869C"/>
</g>
<path d="M569.496 402.459C658.224 462.586 815.866 515.165 885.904 488.773C955.942 462.382 915.354 325.52 885.904 286.427C856.454 247.333 755.827 254.691 705.099 260.188C654.372 265.684 480.768 342.331 569.496 402.459Z" stroke="#E26C56" stroke-width="4"/>
<path d="M606.874 396.453C675.521 443.052 797.486 483.8 851.674 463.347C905.861 442.893 874.459 336.826 851.674 306.528C828.889 276.23 751.035 281.933 711.788 286.193C672.541 290.453 538.227 349.854 606.874 396.453Z" stroke="#E26C56" stroke-width="3"/>
<path d="M642.514 390.669C692.014 424.241 779.962 453.597 819.036 438.862C858.11 424.126 835.466 347.712 819.036 325.885C802.606 304.058 746.467 308.166 718.166 311.235C689.865 314.304 593.013 357.098 642.514 390.669Z" stroke="#E26C56" stroke-width="2"/>
<path d="M685.107 383.774C711.726 401.812 759.018 417.586 780.03 409.668C801.041 401.751 788.865 360.692 780.03 348.964C771.195 337.236 741.006 339.444 725.788 341.093C710.57 342.742 658.489 365.736 685.107 383.774Z" stroke="#E26C56"/>
<path d="M223 404C223 404 378.123 355.098 460.544 306.026C542.966 256.953 497.716 237.666 568.512 198.287C639.308 158.909 575.547 83.1312 773.814 131.776C972.082 180.42 1123 334.33 1123 334.33" stroke="#6A9360" stroke-width="4" stroke-linecap="round"/>
<circle cx="1098" cy="156" r="50" fill="#FFBA5F"/>
<circle cx="349" cy="243" r="17" fill="#FFBA5F"/>
<circle cx="1048" cy="491" r="6" fill="#FFBA5F"/>
<g clip-path="url(#clip2_0_32)">
<path d="M404.783 489.443L513.34 460.355L523.339 497.675L575.258 483.764L565.258 446.444L592.15 439.238L580.68 396.43L553.788 403.636L515.024 258.967L446.641 277.29L393.43 447.074L404.783 489.443ZM502.967 417.253L447.316 432.165L446.846 430.409L477.858 330.571L479.614 330.1L502.967 417.253Z" fill="#223051"/>
<path d="M689.472 447.682C750.381 447.795 787.767 402.795 787.881 325.977C787.994 249.614 750.381 206.091 689.472 206.091C628.562 206.091 591.29 249.5 591.176 325.977C590.949 402.568 628.562 447.682 689.472 447.682ZM689.472 401.659C665.267 401.659 648.79 377.341 649.017 325.977C649.131 275.636 665.381 251.773 689.472 251.773C713.676 251.773 729.926 275.636 730.04 325.977C730.153 377.341 713.79 401.659 689.472 401.659Z" fill="#223051"/>
<path d="M687.472 428.682C748.381 428.795 785.767 383.795 785.881 306.977C785.994 230.614 748.381 187.091 687.472 187.091C626.562 187.091 589.29 230.5 589.176 306.977C588.949 383.568 626.562 428.682 687.472 428.682ZM687.472 382.659C663.267 382.659 646.79 358.341 647.017 306.977C647.131 256.636 663.381 232.773 687.472 232.773C711.676 232.773 727.926 256.636 728.04 306.977C728.153 358.341 711.79 382.659 687.472 382.659Z" fill="#E26C56"/>
<path d="M788.736 440.012L897.293 469.099L887.294 506.419L939.212 520.331L949.212 483.011L976.104 490.217L987.575 447.409L960.682 440.203L999.446 295.534L931.063 277.21L800.089 397.643L788.736 440.012ZM909.861 426.586L854.211 411.674L854.681 409.918L931.458 338.962L933.214 339.433L909.861 426.586Z" fill="#223051"/>
</g>
</g>
<defs>
<clipPath id="clip0_0_32">
<rect width="1440" height="780" fill="white"/>
</clipPath>
<clipPath id="clip1_0_32">
<rect width="1070" height="104" fill="white" transform="translate(185 526)"/>
</clipPath>
<clipPath id="clip2_0_32">
<rect width="694" height="432" fill="white" transform="translate(342 142)"/>
</clipPath>
</defs>
</svg>
