<svg width="57" height="9" viewBox="0 0 57 9" fill="none" xmlns="http://www.w3.org/2000/svg">
<path d="M4.5 0.5L6.02963 3.10796L9 3.74671L6.975 5.99727L7.28115 9L4.5 7.78296L1.71885 9L2.025 5.99727L0 3.74671L2.97037 3.10796L4.5 0.5Z" fill="#FFCB45"/>
<path d="M16.5 0.5L18.0296 3.10796L21 3.74671L18.975 5.99727L19.2812 9L16.5 7.78296L13.7188 9L14.025 5.99727L12 3.74671L14.9704 3.10796L16.5 0.5Z" fill="#FFCB45"/>
<path d="M28.5 0.5L30.0296 3.10796L33 3.74671L30.975 5.99727L31.2812 9L28.5 7.78296L25.7188 9L26.025 5.99727L24 3.74671L26.9704 3.10796L28.5 0.5Z" fill="#FFCB45"/>
<path d="M40.5 0.5L42.0296 3.10796L45 3.74671L42.975 5.99727L43.2812 9L40.5 7.78296L37.7188 9L38.025 5.99727L36 3.74671L38.9704 3.10796L40.5 0.5Z" fill="#FFCB45"/>
<path d="M52.5 0.5L54.0296 3.10796L57 3.74671L54.975 5.99727L55.2812 9L52.5 7.78296L49.7188 9L50.025 5.99727L48 3.74671L50.9704 3.10796L52.5 0.5Z" fill="#FFCB45"/>
</svg>
